#!OML:ASF I:\Actors\actors\Patient Classification 2\Patient 1\Session 1\actor1.ASF
:FULLY-SPECIFIED
:DEGREES
559
root -0.539419 18.6521 6.0655 1.99609 -2.49434 -2.5229
lowerback 0.907776 1.73448 -0.126995
upperback -4.17351 2.3419 0.63757
thorax -4.84563 1.18377 0.609325
lowerneck -6.40425 -2.77645 -2.99296
upperneck 40.4571 -4.15007 1.48894
head 15.3715 -2.0373 0.580878
rclavicle 2.56681e-014 1.27222e-014
rhumerus -68.3943 52.7922 -94.2636
rradius 139.923
rwrist -48.4178
rhand -1.59605 -58.6258
rfingers 7.12502
rthumb 24.0608 -87.1374
lclavicle 2.56681e-014 1.27222e-014
lhumerus -58.1705 -47.6479 88.5812
lradius 137.754
lwrist 65.8894
lhand -9.20631 -3.97799
lfingers 7.12502
lthumb 16.7478 25.3196
rfemur 0 0 0
rtibia 0
rfoot 0 0
rtoes 0
lfemur -2.75869 -7.43914 -12.7654
ltibia 22.1106
lfoot -27.7542 19.1407
ltoes -53.9159
560
root -0.537433 18.6517 6.06021 1.93148 -2.36367 -2.56042
lowerback 0.970802 1.69691 -0.0296697
upperback -4.21106 2.2955 0.634235
thorax -4.91612 1.15677 0.551251
lowerneck -6.49769 -2.76219 -3.04905
upperneck 40.4986 -4.13722 1.54831
head 15.4183 -2.0315 0.616602
rclavicle -1.47101e-014 -7.7526e-015
rhumerus -67.0499 53.7736 -93.598
rradius 140.095
rwrist -47.3746
rhand -2.15984 -58.2041
rfingers 7.12502
rthumb 23.5201 -86.7861
lclavicle -1.47101e-014 -7.7526e-015
lhumerus -57.0075 -48.7258 88.0055
lradius 137.603
lwrist 66.4819
lhand -9.72469 -3.86221
lfingers 7.12502
lthumb 16.2487 25.4769
rfemur 0 0 0
rtibia 0
rfoot 0 0
rtoes 0
lfemur -2.75993 -7.46588 -12.7183
ltibia 22.1496
lfoot -27.6632 19.0946
ltoes -54.0424
561
root -0.535827 18.6511 6.05634 1.89236 -2.26506 -2.55092
lowerback 0.910486 1.65906 -0.000140973
upperback -4.19962 2.24487 0.618895
thorax -4.86731 1.13014 0.523727
lowerneck -6.67055 -2.74486 -3.04182
upperneck 40.5471 -4.0965 1.51592
head 15.4816 -2.01553 0.604455
rclavicle -1.59028e-014 -7.15625e-015
rhumerus -65.5565 54.7403 -92.8318
rradius 140.261
rwrist -46.2431
rhand -2.82123 -57.5862
rfingers 7.12502
rthumb 22.8855 -86.2482
lclavicle -1.59028e-014 -7.15625e-015
lhumerus -55.7716 -49.7567 87.3704
lradius 137.459
lwrist 67.0406
lhand -10.094 -3.68912
lfingers 7.12502
lthumb 15.8931 25.6787
rfemur 0 0 0
rtibia 0
rfoot 0 0
rtoes 0
lfemur -2.76757 -7.5138 -12.724
ltibia 22.1788
lfoot -27.6542 19.0237
ltoes -53.9829
562
root -0.534147 18.6514 6.0518 1.85496 -2.20805 -2.52356
lowerback 0.825001 1.62718 0.000467564
upperback -4.16132 2.20094 0.605574
thorax -4.77744 1.10805 0.51524
lowerneck -6.8078 -2.71143 -3.02219
upperneck 40.4776 -4.01176 1.43441
head 15.4719 -1.98607 0.576157
rclavicle -2.83268e-014 0
rhumerus -63.991 55.712 -92.0267
rradius 140.332
rwrist -44.7776
rhand -3.5121 -56.6784
rfingers 7.12502
rthumb 22.2224 -85.4209
lclavicle -2.83268e-014 0
lhumerus -54.4849 -50.7268 86.7278
lradius 137.312
lwrist 67.4214
lhand -10.3686 -3.42859
lfingers 7.12502
lthumb 15.6287 25.9601
rfemur 0 0 0
rtibia 0
rfoot 0 0
rtoes 0
lfemur -2.75872 -7.5761 -12.7583
ltibia 22.1912
lfoot -27.6859 18.9729
ltoes -53.8621
563
root -0.533901 18.6524 6.04596 1.82646 -2.18537 -2.50593
lowerback 0.780176 1.59941 0.00444243
upperback -4.15011 2.16263 0.582086
thorax -4.73865 1.08836 0.492281
lowerneck -6.90155 -2.67191 -3.07825
upperneck 40.3796 -3.97133 1.53141
head 15.4465 -1.96445 0.632124
rclavicle 8.69683e-015 1.11319e-014
rhumerus -62.3769 56.6758 -91.2422
rradius 140.304
rwrist -42.9855
rhand -3.91295 -55.6678
rfingers 7.12502
rthumb 21.8375 -84.4556
lclavicle 8.69683e-015 1.11319e-014
lhumerus -53.1789 -51.6379 86.0731
lradius 137.193
lwrist 67.707
lhand -10.5373 -3.26365
lfingers 7.12502
lthumb 15.4662 26.1377
rfemur 0 0 0
rtibia 0
rfoot 0 0
rtoes 0
lfemur -2.7531 -7.62682 -12.7822
ltibia 22.1908
lfoot -27.6884 18.9978
ltoes -53.9157
564
root -0.533487 18.6527 6.04007 1.826 -2.21234 -2.52738
lowerback 0.75117 1.58445 0.055763
upperback -4.17675 2.14292 0.547844
thorax -4.74648 1.07585 0.429711
lowerneck -6.98195 -2.64476 -3.06495
upperneck 40.3149 -3.95714 1.59997
head 15.433 -1.9476 0.6597
rclavicle 3.97569e-015 -1.39149e-015
rhumerus -60.7497 57.6235 -90.4895
rradius 140.257
rwrist -41.1266
rhand -4.35421 -54.4508
rfingers 7.12502
rthumb 21.4138 -83.2874
lclavicle 3.97569e-015 -1.39149e-015
lhumerus -51.9482 -52.4815 85.447
lradius 137.131
lwrist 68.0711
lhand -10.8131 -3.1792
lfingers 7.12502
lthumb 15.2005 26.2424
rfemur 0 0 0
rtibia 0
rfoot 0 0
rtoes 0
lfemur -2.76425 -7.63554 -12.7656
ltibia 22.1895
lfoot -27.6835 19.0501
ltoes -53.9938
565
root -0.532498 18.6533 6.03536 1.84287 -2.27458 -2.55436
lowerback 0.7012 1.59658 0.134739
upperback -4.2008 2.15978 0.504482
thorax -4.73861 1.08028 0.341189
lowerneck -7.08316 -2.64064 -2.99775
upperneck 40.3482 -3.95339 1.56864
head 15.4711 -1.93946 0.633073
rclavicle 1.01132e-014 6.16232e-015
rhumerus -59.0814 58.5148 -89.6437
rradius 140.203
rwrist -39.4697
rhand -5.37353 -52.9749
rfingers 7.12502
rthumb 20.4345 -81.9197
lclavicle 1.01132e-014 6.16232e-015
lhumerus -50.7518 -53.2632 84.8493
lradius 137.093
lwrist 68.4857
lhand -11.1753 -3.01674
lfingers 7.12502
lthumb 14.8517 26.431
rfemur 0 0 0
rtibia 0
rfoot 0 0
rtoes 0
lfemur -2.77844 -7.61091 -12.7444
ltibia 22.1867
lfoot -27.6585 19.1109
ltoes -54.0353
566
root -0.532261 18.6539 6.03121 1.85404 -2.3369 -2.56192
lowerback 0.661099 1.60338 0.170637
upperback -4.21461 2.16852 0.472359
thorax -4.72764 1.08258 0.2886
lowerneck -7.22145 -2.61651 -2.92479
upperneck 40.4432 -3.91831 1.53027
head 15.5486 -1.91736 0.606522
rclavicle 4.44781e-015 1.19271e-015
rhumerus -57.516 59.3792 -88.8476
rradius 140.147
rwrist -37.8217
rhand -6.32309 -51.8078
rfingers 7.12502
rthumb 19.5217 -80.8477
lclavicle 4.44781e-015 1.19271e-015
lhumerus -49.631 -53.951 84.2818
lradius 137.025
lwrist 68.8758
lhand -11.136 -3.00931
lfingers 7.12502
lthumb 14.8895 26.4356
rfemur 0 0 0
rtibia 0
rfoot 0 0
rtoes 0
lfemur -2.7819 -7.61768 -12.7443
ltibia 22.1809
lfoot -27.6265 19.1798
ltoes -54.1015
567
root -0.531714 18.6541 6.02632 1.85159 -2.4092 -2.54395
lowerback 0.670205 1.59878 0.141502
upperback -4.22988 2.16123 0.464071
thorax -4.74952 1.07985 0.29612
lowerneck -7.3515 -2.59955 -2.82473
upperneck 40.4525 -3.84869 1.36283
head 15.5742 -1.89397 0.524747
rclavicle -1.5381e-014 3.97569e-016
rhumerus -56.2183 60.2507 -88.2355
rradius 140.099
rwrist -35.7261
rhand -6.83137 -50.6835
rfingers 7.12502
rthumb 19.033 -79.7722
lclavicle -1.5381e-014 3.97569e-016
lhumerus -48.6604 -54.5325 83.8368
lradius 136.928
lwrist 69.3107
lhand -11.0513 -3.13691
lfingers 7.12502
lthumb 14.9711 26.3019
rfemur 0 0 0
rtibia 0
rfoot 0 0
rtoes 0
lfemur -2.77142 -7.58396 -12.7686
ltibia 22.1735
lfoot -27.6151 19.1854
ltoes -54.1392
568
root -0.531378 18.6549 6.02173 1.84997 -2.49613 -2.54386
lowerback 0.64962 1.60438 0.129167
upperback -4.21282 2.16787 0.460153
thorax -4.7203 1.08358 0.299586
lowerneck -7.48812 -2.6125 -2.73469
upperneck 40.3545 -3.80238 1.15118
head 15.5455 -1.8882 0.42233
rclavicle -3.75455e-014 -7.55382e-015
rhumerus -54.9258 61.1038 -87.5652
rradius 140.035
rwrist -33.1272
rhand -7.46428 -49.2456
rfingers 7.12502
rthumb 18.4242 -78.3931
lclavicle -3.75455e-014 -7.55382e-015
lhumerus -47.7174 -55.0347 83.4362
lradius 136.859
lwrist 69.8063
lhand -11.2444 -3.15359
lfingers 7.12502
lthumb 14.785 26.299
rfemur 0 0 0
rtibia 0
rfoot 0 0
rtoes 0
lfemur -2.75939 -7.50959 -12.7689
ltibia 22.1643
lfoot -27.6505 19.1552
ltoes -54.1069
569
root -0.531903 18.6558 6.0178 1.85214 -2.5653 -2.54877
lowerback 0.599204 1.61054 0.126751
upperback -4.17864 2.17506 0.450131
thorax -4.65561 1.08714 0.292435
lowerneck -7.65792 -2.60552 -2.7264
upperneck 40.2955 -3.78316 1.13671
head 15.5541 -1.87977 0.414781
rclavicle -6.83322e-015 -9.93923e-015
rhumerus -53.5127 61.8835 -86.7397
rradius 139.911
rwrist -30.5338
rhand -8.11858 -47.8081
rfingers 7.12502
rthumb 17.7947 -77.0139
lclavicle -6.83322e-015 -9.93923e-015
lhumerus -46.8351 -55.4618 83.0673
lradius 136.82
lwrist 70.3061
lhand -11.4661 -3.16727
lfingers 7.12502
lthumb 14.5714 26.3009
rfemur 0 0 0
rtibia 0
rfoot 0 0
rtoes 0
lfemur -2.75785 -7.48608 -12.767
ltibia 22.1553
lfoot -27.6366 19.2159
ltoes -54.0872
570
root -0.532033 18.6561 6.01454 1.84754 -2.62143 -2.53018
lowerback 0.582786 1.61075 0.0865324
upperback -4.1606 2.17397 0.453316
thorax -4.62905 1.08823 0.319051
lowerneck -7.8413 -2.57779 -2.81189
upperneck 40.3291 -3.77397 1.28168
head 15.6217 -1.86815 0.490785
rclavicle 3.15819e-014 1.70955e-014
rhumerus -52.1308 62.5936 -85.8722
rradius 139.761
rwrist -28.5339
rhand -8.5236 -46.5226
rfingers 7.12502
rthumb 17.405 -75.7634
lclavicle 3.15819e-014 1.70955e-014
lhumerus -46.1274 -55.8127 82.8538
lradius 136.763
lwrist 70.7421
lhand -11.6504 -3.13161
lfingers 7.12502
lthumb 14.3939 26.3493
rfemur 0 0 0
rtibia 0
rfoot 0 0
rtoes 0
lfemur -2.75088 -7.49541 -12.7973
ltibia 22.1488
lfoot -27.5831 19.3298
ltoes -54.1204
571
root -0.531321 18.656 6.01128 1.83571 -2.68436 -2.53477
lowerback 0.58024 1.60758 0.0703929
upperback -4.13721 2.16966 0.468983
thorax -4.60438 1.08703 0.344903
lowerneck -7.96938 -2.55336 -2.85045
upperneck 40.2941 -3.74514 1.33565
head 15.6359 -1.85385 0.523288
rclavicle -2.64881e-014 2.5842e-015
rhumerus -50.8073 63.2409 -84.981
rradius 139.681
rwrist -27.2729
rhand -9.06675 -45.4683
rfingers 7.12502
rthumb 16.8822 -74.7545
lclavicle -2.64881e-014 2.5842e-015
lhumerus -45.5353 -56.1269 82.7002
lradius 136.707
lwrist 71.1811
lhand -11.8498 -2.93306
lfingers 7.12502
lthumb 14.2017 26.5614
rfemur 0 0 0
rtibia 0
rfoot 0 0
rtoes 0
lfemur -2.72999 -7.48998 -12.8008
ltibia 22.1433
lfoot -27.6139 19.3618
ltoes -54.1227
